<svg width="138" height="40" viewBox="0 0 138 40" fill="none" xmlns="http://www.w3.org/2000/svg">
<g clip-path="url(#clip0_40_3)">
<path d="M15.3636 32.0857C15.1653 32.0911 14.9681 32.0551 14.784 31.9798C14.6 31.9046 14.4331 31.7918 14.2936 31.6483C14.1514 31.5029 14.0399 31.3295 13.9659 31.1387C13.892 30.9479 13.8573 30.7437 13.8638 30.5387V22.0903C13.8638 20.0138 13.4114 18.4024 12.5066 17.256C11.6017 16.1096 10.3508 15.5425 8.75378 15.5548C8.00859 15.5405 7.26909 15.6893 6.58533 15.9912C5.90157 16.293 5.28953 16.7409 4.79062 17.3043C3.71271 18.4938 3.10101 20.0443 3.07144 21.6621V30.4973C3.07371 30.7037 3.03478 30.9085 2.95702 31.0992C2.87926 31.29 2.76427 31.4627 2.61903 31.6068C2.48064 31.7559 2.31316 31.8738 2.12734 31.9531C1.94152 32.0324 1.74147 32.0713 1.54002 32.0672C1.33538 32.07 1.13229 32.0307 0.942978 31.9516C0.753662 31.8725 0.582025 31.7552 0.438386 31.6068C0.291847 31.4636 0.176007 31.2912 0.0981475 31.1002C0.0202885 30.9092 -0.0179048 30.704 -0.0140295 30.4973V13.9871C-0.0170791 13.7777 0.0212109 13.5697 0.0985703 13.3756C0.17593 13.1815 0.290785 13.0052 0.436334 12.857C0.581882 12.7089 0.755163 12.592 0.94591 12.5133C1.13666 12.4346 1.34099 12.3956 1.5468 12.3987C1.75016 12.3929 1.95243 12.4309 2.14033 12.5103C2.32824 12.5896 2.49754 12.7085 2.63712 12.8591C2.77827 13.0095 2.88889 13.1868 2.96264 13.3807C3.03639 13.5747 3.07182 13.7815 3.06692 13.9894V15.5571C4.77252 13.4669 6.77974 12.4217 9.08856 12.4217C11.423 12.4217 13.3171 13.2973 14.7709 15.0484C16.2247 16.7994 16.938 19.113 16.9108 21.989V30.541C16.9159 30.7479 16.8783 30.9535 16.8004 31.1447C16.7225 31.3358 16.6059 31.5082 16.4584 31.6506C16.1642 31.9369 15.7706 32.0933 15.3636 32.0857Z" fill="#FF6633"/>
<path d="M36.1028 31.6252C35.9565 31.7751 35.7818 31.8932 35.5893 31.9723C35.3968 32.0514 35.1906 32.09 34.983 32.0856C34.7797 32.0916 34.5774 32.0536 34.3894 31.9743C34.2015 31.8949 34.0322 31.7759 33.8927 31.6252C33.7524 31.4785 33.6421 31.3048 33.5683 31.1143C33.4946 30.9238 33.4587 30.7203 33.4629 30.5156V28.9687C32.6944 29.909 31.7493 30.6838 30.6828 31.2477C29.6892 31.7791 28.5842 32.0586 27.4616 32.0626C25.0865 32.0626 23.1923 31.1801 21.7793 29.4153C20.3663 27.6933 19.6529 25.3729 19.6394 22.4539V13.9664C19.6414 13.6572 19.7328 13.3554 19.9021 13.0986C20.0713 12.8418 20.3111 12.6413 20.5914 12.5221C20.8718 12.4029 21.1804 12.3702 21.4789 12.428C21.7774 12.4859 22.0525 12.6318 22.2702 12.8476C22.4177 12.9919 22.5342 13.1659 22.612 13.3585C22.6899 13.5512 22.7276 13.7582 22.7226 13.9664V22.5368C22.7497 24.5856 23.2021 26.1671 24.0798 27.2813C24.9575 28.3955 26.1979 28.9518 27.8009 28.9503C28.5433 28.9666 29.2803 28.8183 29.9607 28.5158C30.6412 28.2133 31.2488 27.7638 31.7415 27.1984C32.8228 26.0459 33.3966 24.5879 33.4629 22.8246V14.0078C33.4576 13.7992 33.4951 13.5918 33.573 13.3987C33.6509 13.2057 33.7675 13.0313 33.9153 12.8867C34.0584 12.7417 34.2286 12.6275 34.4159 12.5508C34.6032 12.474 34.8038 12.4364 35.0057 12.4401C35.2088 12.4369 35.4106 12.4747 35.5993 12.5513C35.788 12.628 35.9599 12.742 36.105 12.8867C36.2537 13.0307 36.3708 13.205 36.4488 13.3982C36.5267 13.5913 36.5637 13.7991 36.5574 14.0078V30.5179C36.5611 30.7245 36.5226 30.9295 36.4444 31.1202C36.3661 31.3108 36.2498 31.4827 36.1028 31.6252Z" fill="#FF6633"/>
<path d="M42.959 32.0649C42.7544 32.0709 42.5507 32.0351 42.36 31.9595C42.1692 31.884 41.9952 31.7703 41.8484 31.6252C41.7023 31.4836 41.5867 31.3127 41.5088 31.1233C41.4309 30.9339 41.3925 30.7301 41.3959 30.5249V15.5755H39.4347C39.2289 15.5798 39.0244 15.5412 38.8337 15.462C38.6431 15.3828 38.4704 15.2647 38.3263 15.1151C38.0377 14.8182 37.8759 14.4174 37.8759 13.9998C37.8759 13.5821 38.0377 13.1814 38.3263 12.8844C38.4722 12.7382 38.6455 12.6232 38.8359 12.5465C39.0263 12.4698 39.23 12.4328 39.4347 12.4378H41.3959V6.91298C41.3891 6.70588 41.4259 6.49968 41.504 6.30828C41.582 6.11688 41.6994 5.94473 41.8484 5.80341C42.1436 5.5155 42.5389 5.35825 42.9477 5.36602C43.1489 5.36175 43.3489 5.39822 43.536 5.4733C43.7232 5.54839 43.8939 5.6606 44.0381 5.80341C44.1862 5.94537 44.3031 6.11764 44.381 6.30889C44.459 6.50013 44.4963 6.70601 44.4905 6.91298V12.4378H46.8905C47.2991 12.4378 47.6909 12.603 47.9798 12.897C48.2687 13.191 48.431 13.5897 48.431 14.0055C48.431 14.4213 48.2687 14.82 47.9798 15.114C47.6909 15.408 47.2991 15.5732 46.8905 15.5732H44.495V30.5157C44.4988 30.721 44.4606 30.9249 44.3827 31.1143C44.3048 31.3038 44.189 31.4747 44.0426 31.616C43.9005 31.7606 43.7315 31.8748 43.5454 31.9519C43.3593 32.029 43.1599 32.0674 42.959 32.0649Z" fill="#FF6633"/>
<path d="M51.3943 32.0649C51.1919 32.0655 50.9913 32.0254 50.8041 31.9468C50.6169 31.8682 50.4469 31.7528 50.3037 31.6071C50.1605 31.4614 50.0471 31.2883 49.9699 31.0978C49.8927 30.9074 49.8533 30.7032 49.8539 30.4972V13.9871C49.8508 13.7776 49.8891 13.5697 49.9665 13.3756C50.0438 13.1815 50.1587 13.0051 50.3042 12.857C50.4498 12.7089 50.623 12.592 50.8138 12.5133C51.0045 12.4345 51.2089 12.3956 51.4147 12.3987C51.6181 12.3927 51.8204 12.4307 52.0083 12.51C52.1962 12.5894 52.3655 12.7084 52.505 12.8591C52.6467 13.0091 52.7576 13.1863 52.8314 13.3803C52.9052 13.5744 52.9403 13.7814 52.9348 13.9894V15.3936C53.8568 14.4427 54.9569 13.6897 56.1699 13.1793C57.383 12.6688 58.6844 12.4112 59.997 12.4217H60.1169C60.3311 12.41 60.5455 12.4428 60.7469 12.5179C60.9483 12.5931 61.1326 12.7092 61.2887 12.8591C61.4319 13.0079 61.5439 13.1849 61.6178 13.3792C61.6917 13.5736 61.7259 13.7812 61.7185 13.9894C61.725 14.1964 61.6881 14.4025 61.61 14.5939C61.532 14.7853 61.4147 14.9574 61.266 15.0989C60.9599 15.3899 60.5537 15.5469 60.135 15.5363H60.0151C59.0867 15.5256 58.1661 15.7088 57.3101 16.0747C56.4541 16.4406 55.6809 16.9813 55.0385 17.6634C54.3629 18.3291 53.8286 19.1287 53.4687 20.0129C53.1088 20.8971 52.931 21.8469 52.9461 22.8038V30.4972C52.9498 30.7026 52.9128 30.9067 52.8374 31.0973C52.762 31.288 52.6497 31.4612 52.5073 31.6068C52.3637 31.7583 52.1904 31.8774 51.9987 31.9563C51.8069 32.0352 51.601 32.0722 51.3943 32.0649Z" fill="#FF6633"/>
<path d="M66.0119 9.21271C65.8438 9.38394 65.6442 9.51978 65.4246 9.61246C65.2049 9.70513 64.9694 9.75284 64.7316 9.75284C64.4938 9.75284 64.2583 9.70513 64.0386 9.61246C63.8189 9.51978 63.6193 9.38394 63.4512 9.21271C63.1984 8.95508 63.0262 8.62693 62.9565 8.26975C62.8869 7.91256 62.9228 7.54238 63.0599 7.20599C63.1969 6.86959 63.4288 6.58209 63.7264 6.37982C64.0239 6.17755 64.3737 6.0696 64.7316 6.0696C65.0894 6.0696 65.4392 6.17755 65.7367 6.37982C66.0343 6.58209 66.2663 6.86959 66.4033 7.20599C66.5403 7.54238 66.5763 7.91256 66.5066 8.26975C66.4369 8.62693 66.2648 8.95508 66.0119 9.21271ZM65.8332 31.6068C65.6943 31.7558 65.5264 31.8737 65.3402 31.953C65.1541 32.0322 64.9537 32.0712 64.7519 32.0672C64.5476 32.07 64.3449 32.0306 64.156 31.9515C63.967 31.8724 63.7958 31.7551 63.6526 31.6068C63.5057 31.4639 63.3896 31.2914 63.3118 31.1004C63.2339 30.9094 63.1959 30.704 63.2002 30.4973V13.9871C63.1971 13.7777 63.2354 13.5697 63.3128 13.3756C63.3901 13.1815 63.505 13.0052 63.6505 12.857C63.7961 12.7089 63.9693 12.592 64.1601 12.5133C64.3508 12.4346 64.5552 12.3956 64.761 12.3987C64.9644 12.3928 65.1667 12.4307 65.3546 12.5101C65.5425 12.5894 65.7118 12.7084 65.8513 12.8591C65.993 13.0091 66.1039 13.1863 66.1777 13.3804C66.2515 13.5744 66.2866 13.7814 66.2811 13.9894V30.4973C66.2835 30.7033 66.2452 30.9078 66.1682 31.0985C66.0912 31.2891 65.9773 31.462 65.8332 31.6068Z" fill="#FF6633"/>
<path fill-rule="evenodd" clip-rule="evenodd" d="M137.134 20.5755C136.986 25.7771 134.851 30.715 131.183 34.3409C127.515 37.9668 122.603 39.9952 117.49 39.9954V29.6363C120.002 29.6363 122.411 28.6208 124.187 26.8132C125.963 25.0056 126.961 22.554 126.961 19.9977C126.961 17.4414 125.963 14.9898 124.187 13.1822C122.411 11.3746 120.002 10.3591 117.49 10.3591V0C117.68 0 117.87 0 118.06 0C120.64 0.0762784 123.18 0.669011 125.535 1.74435C127.89 2.81969 130.014 4.35657 131.785 6.26722C133.556 8.17788 134.94 10.4249 135.858 12.8799C136.776 15.3349 137.209 17.9499 137.134 20.5755ZM117.49 39.9954C117.3 39.9954 117.11 39.9954 116.92 39.9954C111.764 39.8363 106.876 37.6205 103.311 33.8263C99.7461 30.032 97.79 24.9635 97.8648 19.7145C97.9396 14.4655 100.039 9.45686 103.711 5.76944C107.383 2.08202 112.332 0.0114697 117.49 0.00460503V10.3637C114.978 10.3637 112.569 11.3792 110.793 13.1868C109.017 14.9944 108.019 17.446 108.019 20.0023C108.019 22.5586 109.017 25.0102 110.793 26.8178C112.569 28.6254 114.978 29.6409 117.49 29.6409V39.9954Z" fill="url(#paint0_linear_40_3)"/>
<path fill-rule="evenodd" clip-rule="evenodd" d="M107.991 21.0728V21.0958C107.991 21.2638 107.971 21.4342 107.96 21.6022C107.96 21.7611 107.933 21.9153 107.917 22.0626V22.1248C107.903 22.2675 107.885 22.4102 107.867 22.553L107.856 22.6427C107.84 22.7716 107.822 22.8983 107.804 23.0249L107.783 23.1446V23.1975C107.765 23.2988 107.749 23.4001 107.731 23.5014L107.7 23.6856C107.679 23.7868 107.661 23.8858 107.641 23.9848C106.764 28.3493 104.481 32.2912 101.153 35.1853C97.8257 38.0795 93.6438 39.7604 89.2709 39.9614C84.8979 40.1625 80.5841 38.8722 77.0135 36.2952C73.4429 33.7181 70.8198 30.0019 69.5601 25.7356C68.3004 21.4693 68.4762 16.8971 70.0596 12.7441C71.6431 8.59098 74.5435 5.09467 78.3011 2.80949C82.0587 0.524303 86.4584 -0.418975 90.8025 0.129214C95.1467 0.677404 99.1867 2.68569 102.282 5.83564L95.0818 13.1607C93.6552 11.7089 91.8104 10.7587 89.8161 10.4484C87.8218 10.1381 85.7822 10.4839 83.9946 11.4356C82.2069 12.3872 80.7646 13.8949 79.8776 15.739C78.9907 17.5831 78.7056 19.6672 79.0638 21.6876C79.4221 23.7081 80.4049 25.5594 81.8692 26.9718C83.3334 28.3842 85.2026 29.2838 87.2043 29.5397C89.2061 29.7955 91.2358 29.3942 92.9978 28.3942C94.7598 27.3942 96.162 25.8478 97.0001 23.9802H88.3657V15.9922H107.625C107.911 17.4244 108.042 18.8841 108.016 20.3453V20.4167V20.488V20.5755C108.007 20.7459 108.001 20.9093 107.991 21.0728Z" fill="url(#paint1_linear_40_3)"/>
</g>
<defs>
<linearGradient id="paint0_linear_40_3" x1="115.28" y1="19.3969" x2="146.689" y2="27.667" gradientUnits="userSpaceOnUse">
<stop stop-color="#3E7C31"/>
<stop offset="1" stop-color="#28381C"/>
</linearGradient>
<linearGradient id="paint1_linear_40_3" x1="17706" y1="12400.2" x2="21007.6" y2="11531" gradientUnits="userSpaceOnUse">
<stop stop-color="#3E7C31"/>
<stop offset="1" stop-color="#28381C"/>
</linearGradient>
<clipPath id="clip0_40_3">
<rect width="137.143" height="40" fill="white"/>
</clipPath>
</defs>
</svg>
